<svg width="1315" height="584" viewBox="0 0 1315 584" fill="none" xmlns="http://www.w3.org/2000/svg">
<g filter="url(#filter0_d_2_17013)">
<path d="M104.611 330.981H444.055V383.637H104.611V330.981Z" fill="#7CE3E1"/>
<path d="M130.179 220.725C157.462 239.623 141.911 281.088 160.586 341.924C167.128 363.223 184.236 418.941 226.35 446.271C285.126 484.409 337.679 431.616 456.733 449.769C506.03 457.288 582.473 479.371 582.176 502.399C581.626 544.802 321.218 564.767 230.258 571.744C126.362 579.719 102.877 574.675 81.2065 560.331C-19.1254 493.893 -17.1811 269.744 61.1011 223.398C80.486 211.92 111.069 207.484 130.179 220.725Z" fill="#4761FF"/>
<path d="M461.106 97.9779H461.994C488.76 97.9779 510.538 76.2004 510.538 49.4317V48.5462C510.538 21.7774 488.76 0 461.994 0H461.106C434.337 0 412.562 21.7774 412.562 48.5462V49.4317C412.562 76.2004 434.337 97.9779 461.106 97.9779ZM461.994 2.00202C487.652 2.00202 508.525 22.8775 508.525 48.5352V49.4207C508.525 75.0784 487.652 95.9538 461.994 95.9538H461.106C435.448 95.9538 414.575 75.0784 414.575 49.4207V48.5352C414.575 22.8775 435.448 2.00202 461.106 2.00202H461.994Z" fill="black"/>
<path d="M454.775 78.4445L425.595 45.5488L436.323 37.5434L454.506 58.0394L486.571 20.0505L497.505 27.8194L454.775 78.4445Z" fill="#7CE3E1"/>
<path d="M404.392 454.601C404.392 454.601 439.614 483.919 442.175 494.226C444.735 504.533 369.156 477.894 369.156 477.894L373.479 453.3L404.392 454.601Z" fill="black"/>
<path d="M438.921 493.805C440.926 493.805 441.553 493.445 441.946 493.214C442.063 493.149 442.166 493.062 442.248 492.957C442.331 492.853 442.392 492.733 442.428 492.604C442.463 492.476 442.473 492.341 442.457 492.209C442.44 492.077 442.398 491.949 442.331 491.833C442.265 491.718 442.176 491.616 442.071 491.535C441.965 491.454 441.844 491.395 441.715 491.361C441.586 491.327 441.452 491.319 441.319 491.337C441.187 491.355 441.06 491.4 440.945 491.468C436.578 493.979 394.869 482.076 369.602 473.986C369.346 473.905 369.069 473.928 368.831 474.051C368.593 474.174 368.414 474.387 368.332 474.642C368.251 474.897 368.275 475.174 368.398 475.412C368.521 475.65 368.733 475.83 368.988 475.911C369.153 475.963 385.648 481.235 402.709 485.993C425.804 492.422 434.997 493.805 438.921 493.805Z" fill="white"/>
<path d="M405.585 466.759C405.819 466.759 406.044 466.677 406.223 466.528L412.587 461.303C412.785 461.131 412.908 460.888 412.93 460.627C412.952 460.365 412.871 460.106 412.704 459.903C412.538 459.701 412.298 459.571 412.038 459.542C411.777 459.514 411.515 459.588 411.308 459.749L404.945 464.974C404.784 465.106 404.668 465.284 404.613 465.484C404.557 465.685 404.565 465.897 404.636 466.093C404.706 466.288 404.835 466.457 405.005 466.576C405.175 466.696 405.378 466.759 405.585 466.759Z" fill="white"/>
<path d="M412.535 473.189C412.781 473.189 413.019 473.099 413.203 472.936L419.853 467.051C420.045 466.872 420.16 466.625 420.173 466.362C420.186 466.1 420.096 465.843 419.922 465.646C419.748 465.449 419.503 465.328 419.241 465.309C418.979 465.29 418.72 465.374 418.519 465.544L411.869 471.429C411.716 471.564 411.608 471.743 411.559 471.941C411.511 472.139 411.523 472.347 411.595 472.538C411.667 472.729 411.796 472.894 411.964 473.01C412.132 473.126 412.331 473.188 412.535 473.189Z" fill="white"/>
<path fill-rule="evenodd" clip-rule="evenodd" d="M411.757 275.792C411.757 275.792 406.257 273.366 404.332 272.896C385.631 268.345 327.763 264.781 327.763 264.781L327.664 261.376L247.842 258.695L240.174 272.896C240.174 272.896 231.795 292.971 237.452 310.552C243.109 328.133 257.527 331.524 266.555 331.972C273.037 332.297 330.436 332.156 362.256 332.052L355.849 460.725H424.729L435.132 313.5C435.845 305.531 433.951 297.546 429.735 290.746C425.52 283.946 419.211 278.698 411.757 275.792Z" fill="#FFB64F"/>
<path fill-rule="evenodd" clip-rule="evenodd" d="M284.807 295.892L276.612 460.728H345.492L362.275 294.979L284.807 295.892Z" fill="#FFB64F"/>
<path d="M484.827 96.3966C481.772 93.9794 477.647 98.8386 477.314 99.2401C477.62 98.8689 480.994 94.6146 477.116 93.2451C475.04 92.5108 472.414 92.9701 469.449 97.7001C465.354 104.218 461.911 109.949 461.911 109.949C462.739 105.601 464.018 101.351 465.726 97.2684C467.315 93.4981 465.107 91.7216 464.037 91.5236C461.386 91.0341 459.522 91.6748 456.183 98.5444C452.845 105.414 451.376 109.599 451.376 109.599C451.376 109.599 433.869 110.246 428.001 112.669C425.658 113.637 424.11 117.965 423.092 122.811C421.992 128.019 417.298 164.248 414.636 173.472C423.917 176.552 433.259 179.445 442.719 181.933C444.485 182.398 448.64 182.758 448.64 182.758C448.64 182.758 450.394 148.155 451.255 136.64C451.408 134.836 452.036 133.105 453.075 131.622C454.114 130.139 455.527 128.958 457.17 128.198C464.595 124.694 476.39 119.747 477.193 118.779C479.701 115.754 483.243 109.261 485.317 102.279C486.497 98.3629 485.878 97.2244 484.827 96.3966Z" fill="#FFAE99"/>
<path d="M460.168 115.383C460.383 115.382 460.592 115.314 460.765 115.187C460.938 115.06 461.066 114.881 461.131 114.676L463.881 105.791C463.96 105.536 463.934 105.259 463.81 105.023C463.685 104.786 463.472 104.609 463.216 104.53C462.961 104.451 462.685 104.476 462.448 104.601C462.212 104.725 462.035 104.939 461.956 105.194L459.206 114.077C459.126 114.332 459.152 114.607 459.276 114.844C459.4 115.08 459.613 115.257 459.868 115.336C459.965 115.368 460.066 115.384 460.168 115.383Z" fill="black"/>
<path fill-rule="evenodd" clip-rule="evenodd" d="M421.431 121.689L409.386 160.073C404.527 150.85 384.674 123.944 372.555 114.566C357.174 102.664 325.945 101.454 325.945 101.454C325.945 101.454 299.025 100.819 292.359 101.344C281.18 102.229 240.213 104.149 224.708 130.027C213.433 148.829 193.138 187.725 201.256 213.179C208.725 236.601 247.778 229.767 247.778 229.767C247.778 229.767 243.813 266.499 244.088 266.486C244.088 266.486 319.477 271.161 318.545 270.905C318.517 270.905 318.473 270.8 318.413 270.63L369.822 268.518L370.803 214.986C371.186 241.224 402.979 245.959 413.596 241.224C448.607 225.623 451.198 178.606 466.045 135.942L421.431 121.689Z" fill="black"/>
<path d="M322.403 271.68C322.661 271.68 322.909 271.581 323.096 271.404C323.283 271.226 323.395 270.984 323.409 270.726C328.403 175.716 319.633 108.178 319.545 107.507C319.527 107.376 319.484 107.249 319.417 107.135C319.35 107.021 319.261 106.921 319.156 106.841C319.05 106.761 318.93 106.703 318.802 106.669C318.674 106.636 318.541 106.628 318.41 106.646C318.279 106.664 318.152 106.708 318.038 106.775C317.924 106.841 317.824 106.93 317.744 107.036C317.664 107.141 317.606 107.261 317.572 107.389C317.539 107.517 317.531 107.651 317.549 107.782C317.637 108.453 326.382 175.82 321.399 270.633C321.391 270.765 321.41 270.897 321.454 271.021C321.498 271.146 321.566 271.261 321.655 271.359C321.743 271.457 321.85 271.537 321.97 271.593C322.089 271.65 322.218 271.682 322.35 271.689L322.403 271.68Z" fill="white"/>
<path fill-rule="evenodd" clip-rule="evenodd" d="M333.486 164.759C333.486 166.803 334.687 168.458 336.172 168.458C337.657 168.458 338.859 166.808 338.859 164.759C338.859 162.711 337.655 161.061 336.172 161.061C334.69 161.061 333.486 162.716 333.486 164.759Z" fill="#FCF8F7"/>
<path d="M332.696 253.36C331.212 253.36 330.009 251.704 330.009 249.661C330.009 247.618 331.212 245.962 332.696 245.962C334.18 245.962 335.383 247.618 335.383 249.661C335.383 251.704 334.18 253.36 332.696 253.36Z" fill="#FCF8F7"/>
<path fill-rule="evenodd" clip-rule="evenodd" d="M332.696 204.948C332.696 206.992 333.901 208.647 335.383 208.647C336.865 208.647 338.07 206.997 338.07 204.948C338.07 202.9 336.865 201.25 335.383 201.25C333.901 201.25 332.696 202.908 332.696 204.948Z" fill="#FCF8F7"/>
<path d="M370.886 225.912C371.148 225.912 371.401 225.809 371.589 225.626C371.777 225.442 371.886 225.193 371.892 224.93C371.892 224.462 373.053 177.83 369.744 146.788C369.73 146.657 369.69 146.529 369.627 146.413C369.564 146.297 369.478 146.195 369.375 146.112C369.272 146.029 369.154 145.967 369.027 145.929C368.9 145.892 368.767 145.88 368.636 145.894C368.505 145.908 368.377 145.948 368.261 146.011C368.145 146.075 368.043 146.16 367.96 146.263C367.877 146.366 367.815 146.484 367.777 146.611C367.74 146.738 367.728 146.871 367.742 147.002C371.042 177.91 369.893 224.413 369.879 224.878C369.876 225.01 369.899 225.141 369.946 225.265C369.994 225.388 370.065 225.501 370.156 225.597C370.247 225.692 370.357 225.769 370.477 225.823C370.598 225.876 370.729 225.906 370.861 225.909L370.886 225.912Z" fill="white"/>
<path d="M400.119 184.417C400.32 184.417 400.517 184.356 400.684 184.243C400.85 184.129 400.979 183.969 401.054 183.781L410.321 160.445C410.42 160.196 410.415 159.919 410.309 159.674C410.203 159.429 410.004 159.236 409.756 159.137C409.508 159.039 409.23 159.043 408.985 159.149C408.74 159.255 408.547 159.454 408.448 159.702L399.189 183.036C399.089 183.283 399.091 183.559 399.194 183.804C399.297 184.049 399.493 184.244 399.739 184.345C399.86 184.393 399.989 184.417 400.119 184.417Z" fill="white"/>
<path d="M395.452 167.08C395.621 167.081 395.788 167.039 395.936 166.957L405.239 161.858C405.355 161.795 405.457 161.709 405.54 161.606C405.623 161.503 405.684 161.384 405.721 161.257C405.758 161.13 405.77 160.997 405.756 160.866C405.741 160.735 405.701 160.607 405.638 160.491C405.574 160.375 405.488 160.273 405.385 160.19C405.282 160.108 405.164 160.046 405.037 160.009C404.91 159.972 404.777 159.96 404.646 159.975C404.514 159.989 404.387 160.029 404.271 160.093L394.97 165.191C394.774 165.299 394.62 165.468 394.531 165.673C394.442 165.878 394.423 166.107 394.479 166.324C394.534 166.54 394.66 166.732 394.837 166.869C395.014 167.006 395.231 167.081 395.454 167.08H395.452Z" fill="white"/>
<path fill-rule="evenodd" clip-rule="evenodd" d="M287.813 201.021L289.639 179.948C291.949 172.902 297.298 166.077 300.576 163.948C307.577 159.394 330.966 161.039 331.134 164.773C331.302 168.508 309.39 172.096 309.39 172.096C309.39 172.096 327.716 179.247 327.853 182.767C327.991 186.287 321.77 186.438 321.77 186.438C321.77 186.438 324.663 190.64 322.667 193.434C320.67 196.228 319.144 196.148 319.144 196.148C319.144 196.148 323.464 200.039 318.382 201.054C313.3 202.069 302.792 198.516 302.792 198.516C302.792 198.516 296.951 213.174 285.849 213.174L287.813 201.021Z" fill="#FFAE99"/>
<path d="M255.478 182.819C255.713 182.818 255.939 182.734 256.119 182.584C256.299 182.433 256.42 182.225 256.463 181.994L263.28 147.66C263.318 147.404 263.256 147.143 263.106 146.931C262.957 146.72 262.732 146.573 262.478 146.523C262.224 146.472 261.961 146.521 261.742 146.66C261.523 146.798 261.366 147.015 261.303 147.267L254.488 181.601C254.436 181.863 254.491 182.135 254.639 182.357C254.788 182.579 255.018 182.733 255.28 182.786C255.345 182.802 255.411 182.813 255.478 182.819Z" fill="white"/>
<path d="M247.77 230.774H247.817L283.732 229.124C283.97 229.113 284.196 229.019 284.371 228.857C284.545 228.695 284.657 228.477 284.686 228.241L290.64 180.061C290.658 179.911 290.643 179.76 290.595 179.617C290.548 179.474 290.469 179.344 290.365 179.236C290.263 179.128 290.139 179.044 290.001 178.991C289.863 178.937 289.715 178.914 289.567 178.925L238.607 182.384C238.34 182.402 238.092 182.525 237.916 182.726C237.74 182.928 237.651 183.19 237.669 183.457C237.687 183.723 237.81 183.972 238.011 184.148C238.212 184.324 238.475 184.412 238.742 184.395L288.492 181.048L282.791 227.177L247.726 228.777C247.468 228.795 247.227 228.912 247.052 229.103C246.878 229.294 246.784 229.545 246.789 229.803C246.795 230.062 246.9 230.308 247.083 230.492C247.265 230.675 247.511 230.781 247.77 230.788V230.774Z" fill="white"/>
<path d="M358.612 333.072C358.867 333.071 359.112 332.974 359.298 332.8C359.485 332.626 359.598 332.388 359.616 332.134L360.928 313.572C362.421 296.879 352.546 280.948 336.912 274.854L336.843 274.829L318.844 269.266C318.589 269.187 318.313 269.213 318.077 269.338C317.841 269.463 317.664 269.676 317.585 269.931C317.506 270.187 317.532 270.463 317.657 270.699C317.782 270.935 317.995 271.112 318.25 271.191L336.213 276.749C343.44 279.604 349.553 284.714 353.643 291.32C357.734 297.927 359.585 305.676 358.92 313.418L357.609 332C357.59 332.266 357.678 332.528 357.853 332.729C358.028 332.931 358.275 333.055 358.541 333.075L358.612 333.072Z" fill="black"/>
<path d="M362.245 333.058C362.444 333.058 362.638 332.999 362.804 332.888C362.969 332.777 363.098 332.62 363.175 332.437L373.099 308.649C373.202 308.402 373.202 308.125 373.1 307.879C372.999 307.632 372.803 307.436 372.556 307.333C372.31 307.231 372.033 307.23 371.786 307.332C371.539 307.434 371.343 307.63 371.24 307.876L361.316 331.675C361.252 331.828 361.227 331.994 361.243 332.159C361.258 332.324 361.315 332.483 361.407 332.621C361.499 332.759 361.624 332.872 361.77 332.95C361.916 333.028 362.079 333.069 362.245 333.069V333.058Z" fill="black"/>
<path d="M282.365 333.058C282.632 333.058 282.888 332.952 283.077 332.763C283.266 332.575 283.372 332.319 283.372 332.052V308.866C283.372 308.599 283.266 308.343 283.077 308.155C282.888 307.966 282.632 307.86 282.365 307.86C282.098 307.86 281.842 307.966 281.653 308.155C281.465 308.343 281.359 308.599 281.359 308.866V332.052C281.359 332.319 281.465 332.575 281.653 332.763C281.842 332.952 282.098 333.058 282.365 333.058Z" fill="black"/>
<path d="M314.296 23.5018C313.526 25.5384 312.989 27.6556 312.695 29.8131C312.695 29.8131 314.642 26.2464 314.296 23.5018Z" fill="black"/>
<path d="M327.372 42.2458C326.547 40.56 325.788 39.1245 325.186 38.03C324.807 37.3359 324.215 36.7814 323.498 36.4479C322.781 36.1143 321.976 36.0192 321.201 36.1765C314.958 37.4525 300.873 41.8498 297.364 44.4485C293.44 47.3553 297.155 60.1539 301.439 67.8705C301.856 68.6219 302.184 69.4193 302.416 70.2465L298.263 74.8968L290.723 96.2425L318.558 107.647L321.828 104.825L326.228 84.4256C341.68 76.5468 332.96 53.6419 327.372 42.2458Z" fill="#FFAE99"/>
<path d="M323.054 51.0514C323.193 51.0518 323.331 51.0235 323.458 50.9681C323.585 50.9127 323.7 50.8315 323.794 50.7296C323.822 50.6994 325.505 48.9449 327.386 49.5994C327.511 49.6463 327.645 49.6677 327.779 49.6622C327.913 49.6568 328.044 49.6247 328.166 49.5677C328.287 49.5108 328.396 49.4302 328.486 49.3306C328.575 49.2311 328.644 49.1146 328.688 48.988C328.733 48.8615 328.751 48.7273 328.743 48.5936C328.734 48.4598 328.699 48.329 328.64 48.2089C328.58 48.0889 328.497 47.9819 328.395 47.8944C328.294 47.8068 328.176 47.7404 328.049 47.6991C324.905 46.5991 322.416 49.2529 322.315 49.3656C322.225 49.4628 322.155 49.5767 322.11 49.7009C322.064 49.825 322.044 49.957 322.049 50.0891C322.055 50.2212 322.087 50.3509 322.143 50.4707C322.199 50.5906 322.278 50.6982 322.375 50.7874C322.56 50.9585 322.803 51.053 323.054 51.0514Z" fill="black"/>
<path d="M309.813 57.4454C310.044 57.4449 310.267 57.3654 310.446 57.2204C310.625 57.0753 310.749 56.8732 310.798 56.6479C310.875 56.3069 311.656 53.3478 315.748 54.0051C315.878 54.0259 316.012 54.0207 316.14 53.9899C316.269 53.9592 316.39 53.9034 316.497 53.8257C316.604 53.7481 316.695 53.6502 316.764 53.5375C316.833 53.4248 316.879 53.2996 316.9 53.1691C316.921 53.0385 316.916 52.9052 316.885 52.7766C316.854 52.6481 316.798 52.5268 316.721 52.4198C316.643 52.3128 316.545 52.2222 316.432 52.153C316.32 52.0839 316.195 52.0376 316.064 52.0168C311.191 51.2468 309.206 54.4368 308.834 56.2326C308.781 56.4944 308.833 56.7668 308.98 56.99C309.127 57.2133 309.356 57.3691 309.618 57.4234C309.682 57.437 309.748 57.4443 309.813 57.4454Z" fill="black"/>
<path d="M313.388 59.6618C313.196 59.1531 312.97 58.6471 312.838 58.1191C312.632 57.7011 312.929 57.1456 313.355 56.9696C313.422 56.9461 313.491 56.9313 313.562 56.9256C313.694 56.8717 313.84 56.8648 313.977 56.9058C314.113 56.9468 314.232 57.0334 314.312 57.1511C314.312 57.1676 314.332 57.1896 314.343 57.2088C314.404 57.2748 314.458 57.3477 314.502 57.4261C314.741 57.9182 314.955 58.4221 315.143 58.9358C315.366 59.4858 315.586 59.9011 315.344 60.4978C315.257 60.6855 315.104 60.8339 314.913 60.9139C314.723 60.9938 314.51 60.9994 314.315 60.9296C313.716 60.6738 313.589 60.2146 313.388 59.6618Z" fill="black"/>
<path d="M326.902 54.8629C326.692 54.3583 326.509 53.8434 326.352 53.3201C326.145 52.9021 326.445 52.3466 326.869 52.1706C326.935 52.1472 327.005 52.1324 327.075 52.1266C327.207 52.072 327.353 52.0643 327.49 52.1049C327.627 52.1455 327.745 52.2318 327.826 52.3494L327.856 52.4099C327.919 52.4745 327.973 52.5476 328.016 52.6271C328.256 53.1185 328.47 53.6225 328.656 54.1369C328.882 54.6869 329.102 55.1022 328.857 55.6989C328.77 55.8861 328.617 56.0339 328.426 56.1133C328.236 56.1927 328.023 56.1979 327.829 56.1279C327.237 55.8749 327.111 55.4157 326.902 54.8629Z" fill="black"/>
<path d="M322.389 73.4173C324.248 73.4173 325.81 72.0945 326.514 71.1458C326.668 70.9324 326.732 70.6673 326.692 70.4074C326.653 70.1474 326.513 69.9132 326.304 69.7548C326.094 69.5963 325.83 69.5263 325.57 69.5596C325.309 69.5929 325.071 69.7269 324.908 69.933C324.727 70.1695 323.093 72.1963 321.237 71.0495C320.01 70.2933 320.354 68.5168 320.368 68.4425C320.415 68.1844 320.36 67.9181 320.214 67.7001C320.068 67.4822 319.842 67.33 319.586 67.2758C319.329 67.2217 319.061 67.2699 318.839 67.4103C318.618 67.5507 318.46 67.772 318.399 68.0273C318.371 68.1593 317.739 71.2558 320.178 72.7628C320.838 73.1867 321.605 73.4137 322.389 73.4173Z" fill="black"/>
<path d="M329.479 67.6697C329.679 67.6697 329.874 67.6101 330.04 67.4984C330.207 67.3867 330.336 67.2281 330.411 67.0427C330.59 66.6082 332.097 62.7114 330.359 60.3822C329.473 59.1969 327.994 59.0072 326.561 58.8009C324.938 58.5782 323.404 58.3691 322.384 56.9611C320.58 54.4861 322.934 51.1861 322.958 51.1421C323.116 50.9266 323.182 50.6571 323.141 50.3931C323.101 50.129 322.957 49.892 322.741 49.7341C322.526 49.5762 322.256 49.5104 321.992 49.5511C321.728 49.5918 321.491 49.7358 321.333 49.9513C321.201 50.1356 318.085 54.4586 320.753 58.1436C322.279 60.2474 324.501 60.5527 326.291 60.7947C327.391 60.9459 328.365 61.0697 328.744 61.5867C329.647 62.7912 328.885 65.4367 328.547 66.2865C328.487 66.4387 328.465 66.6033 328.483 66.766C328.501 66.9286 328.558 67.0844 328.65 67.2198C328.742 67.3553 328.865 67.4663 329.01 67.5432C329.154 67.6202 329.315 67.6608 329.479 67.6615V67.6697Z" fill="black"/>
<path d="M316.342 84.0545C316.071 84.0004 315.79 84.021 315.53 84.1143C315.27 84.2076 315.04 84.37 314.866 84.5841C314.691 84.7981 314.578 85.0557 314.538 85.3292C314.499 85.6026 314.535 85.8817 314.642 86.1363L323.055 99.0614L326.421 84.1755L316.342 84.0545Z" fill="#EA8165"/>
<path d="M334.926 22.7069C334.063 14.1818 322.125 12.5318 317.827 17.3883C316.201 19.2226 314.397 22.4456 314.296 23.5016C314.1 21.9589 313.196 20.6774 310.789 20.4326C304.129 19.7561 302.993 29.0319 302.993 29.0319C302.993 29.0319 285.693 27.1482 277.536 44.2011C271.151 57.5524 278.911 69.6773 294.765 84.7612C294.765 84.7612 301.027 81.1861 302.773 74.3331C303.287 72.3146 302.641 70.0348 301.439 67.8705C299.826 64.9078 298.497 61.7993 297.468 58.5865C300.009 57.5634 301.868 54.3982 301.868 50.6471C301.868 47.6221 300.667 44.9931 298.874 43.5438C303.854 40.9285 315.649 37.315 321.209 36.1765C321.984 36.0192 322.789 36.1143 323.507 36.4479C324.224 36.7814 324.815 37.3359 325.194 38.03C325.796 39.13 326.555 40.56 327.38 42.2458C329.393 39.3885 335.663 29.8762 334.926 22.7069Z" fill="#1A1A1A"/>
<path d="M304.847 72.793C303.114 74.993 299.347 75.1608 296.44 73.1753C293.533 71.1898 292.571 67.7962 294.303 65.599C296.036 63.4017 299.803 63.2284 302.71 65.214C305.617 67.1995 306.579 70.593 304.847 72.793Z" fill="#FFAE99"/>
<path d="M303.964 71.6299C304.084 71.6303 304.203 71.6089 304.316 71.5666C304.566 71.4727 304.768 71.2838 304.879 71.041C304.99 70.7983 305 70.5216 304.907 70.2714C303.166 65.5963 298.153 65.3213 295.75 65.8218C295.62 65.8489 295.497 65.9012 295.388 65.9758C295.279 66.0504 295.185 66.1457 295.113 66.2564C295.04 66.3671 294.991 66.491 294.966 66.621C294.942 66.751 294.943 66.8845 294.97 67.014C294.997 67.1434 295.049 67.2663 295.124 67.3756C295.198 67.4848 295.294 67.5783 295.405 67.6507C295.515 67.7231 295.639 67.773 295.769 67.7975C295.899 67.822 296.033 67.8207 296.162 67.7936C296.393 67.7469 301.453 66.7678 303.021 70.9754C303.093 71.1674 303.222 71.3329 303.39 71.4498C303.559 71.5668 303.759 71.6296 303.964 71.6299Z" fill="black"/>
<path fill-rule="evenodd" clip-rule="evenodd" d="M334.924 103.362L325.639 87.6268L317.838 104.784L294.22 86.3013L280.913 102.419L305.729 128.124L318.547 107.639L332.952 126.54L334.924 103.362Z" fill="black"/>
<path d="M305.729 129.13C305.772 129.133 305.814 129.133 305.856 129.13C306.004 129.112 306.147 129.061 306.273 128.981C306.399 128.9 306.506 128.792 306.585 128.665L318.63 109.415L332.152 127.147C332.275 127.309 332.444 127.43 332.637 127.494C332.83 127.558 333.038 127.562 333.233 127.505C333.428 127.449 333.602 127.334 333.731 127.177C333.86 127.02 333.938 126.827 333.956 126.625L335.927 104.075C335.942 103.941 335.93 103.806 335.892 103.678C335.854 103.549 335.791 103.43 335.706 103.326C335.621 103.222 335.516 103.136 335.397 103.074C335.279 103.011 335.149 102.973 335.015 102.961C334.882 102.949 334.747 102.964 334.619 103.005C334.491 103.046 334.373 103.112 334.271 103.2C334.17 103.287 334.086 103.394 334.027 103.514C333.967 103.634 333.931 103.765 333.923 103.899L332.176 123.858L319.348 107.026C319.249 106.896 319.121 106.793 318.973 106.724C318.826 106.656 318.665 106.624 318.502 106.631C318.34 106.639 318.182 106.686 318.042 106.768C317.902 106.85 317.784 106.965 317.698 107.103L305.534 126.54L283.061 105.07C282.967 104.972 282.854 104.895 282.729 104.842C282.604 104.789 282.469 104.761 282.334 104.762C282.198 104.762 282.064 104.79 281.939 104.843C281.814 104.897 281.702 104.975 281.608 105.073C281.514 105.171 281.441 105.288 281.393 105.415C281.346 105.542 281.324 105.677 281.33 105.813C281.336 105.948 281.37 106.082 281.428 106.204C281.487 106.326 281.57 106.436 281.672 106.525L305.047 128.85C305.231 129.026 305.475 129.126 305.729 129.13Z" fill="black"/>
<path d="M312.013 172.998C312.251 172.999 312.481 172.915 312.663 172.763C312.845 172.61 312.967 172.398 313.007 172.163C313.048 171.929 313.004 171.689 312.884 171.483C312.764 171.278 312.575 171.122 312.351 171.043L305.564 168.626C305.313 168.536 305.036 168.55 304.794 168.665C304.553 168.779 304.367 168.985 304.277 169.236C304.188 169.488 304.202 169.765 304.316 170.006C304.431 170.248 304.636 170.434 304.888 170.523L311.675 172.941C311.784 172.978 311.898 172.998 312.013 172.998Z" fill="black"/>
<path d="M323.682 188.289C323.911 188.287 324.134 188.207 324.312 188.061C324.49 187.916 324.612 187.714 324.659 187.489C324.707 187.264 324.676 187.03 324.571 186.825C324.467 186.62 324.296 186.458 324.086 186.364L305.829 178.35C305.584 178.243 305.307 178.237 305.058 178.335C304.809 178.432 304.609 178.624 304.502 178.868C304.394 179.113 304.389 179.39 304.486 179.639C304.583 179.888 304.775 180.088 305.02 180.195L323.288 188.198C323.412 188.254 323.546 188.285 323.682 188.289Z" fill="black"/>
<path d="M320.294 197.699C320.526 197.703 320.752 197.627 320.934 197.484C321.116 197.34 321.243 197.138 321.294 196.912C321.344 196.685 321.315 196.449 321.211 196.241C321.107 196.034 320.934 195.869 320.723 195.774L304.33 188.11C304.21 188.051 304.079 188.017 303.946 188.009C303.812 188.002 303.679 188.021 303.553 188.065C303.427 188.11 303.311 188.179 303.212 188.269C303.113 188.358 303.033 188.467 302.976 188.588C302.92 188.709 302.888 188.84 302.882 188.974C302.877 189.107 302.898 189.24 302.945 189.366C302.991 189.491 303.062 189.605 303.154 189.703C303.245 189.8 303.355 189.879 303.477 189.933L319.867 197.597C320 197.663 320.146 197.698 320.294 197.699Z" fill="black"/>
<path d="M468.979 118.581C469.173 118.581 469.363 118.526 469.526 118.42C469.69 118.315 469.818 118.164 469.898 117.987C470.505 116.64 479.583 98.1484 479.674 97.9642C479.792 97.7246 479.81 97.448 479.724 97.1953C479.637 96.9426 479.454 96.7344 479.215 96.6166C478.975 96.4989 478.699 96.4811 478.446 96.5672C478.193 96.6533 477.985 96.8363 477.867 97.0759C477.493 97.8376 468.682 115.776 468.063 117.151C467.994 117.304 467.964 117.472 467.976 117.64C467.989 117.807 468.043 117.969 468.134 118.111C468.225 118.252 468.35 118.368 468.498 118.448C468.646 118.529 468.811 118.57 468.979 118.57V118.581Z" fill="black"/>
<path d="M476.979 121.119C477.169 121.12 477.356 121.066 477.517 120.964C477.678 120.862 477.807 120.717 477.889 120.545L486.992 101.349C487.106 101.108 487.12 100.831 487.03 100.579C486.941 100.328 486.755 100.122 486.513 100.007C486.272 99.8929 485.995 99.8789 485.743 99.9687C485.491 100.058 485.286 100.244 485.171 100.486L476.071 119.681C476.014 119.801 475.982 119.93 475.975 120.062C475.968 120.194 475.988 120.327 476.032 120.451C476.077 120.576 476.145 120.691 476.234 120.789C476.323 120.887 476.43 120.966 476.55 121.023C476.684 121.087 476.83 121.12 476.979 121.119Z" fill="black"/>
<path d="M305.729 129.13H305.837C305.989 129.114 306.135 129.064 306.265 128.983C306.394 128.902 306.504 128.792 306.585 128.663L318.63 109.413L332.152 127.147C332.275 127.309 332.444 127.43 332.637 127.494C332.83 127.558 333.038 127.562 333.233 127.505C333.428 127.448 333.602 127.334 333.731 127.177C333.86 127.02 333.938 126.827 333.956 126.625L336.021 102.339C336.037 102.206 336.025 102.07 335.987 101.94C335.95 101.811 335.886 101.69 335.801 101.586C335.716 101.481 335.61 101.395 335.491 101.332C335.372 101.269 335.241 101.231 335.107 101.22C334.972 101.208 334.837 101.224 334.709 101.266C334.581 101.308 334.462 101.375 334.36 101.463C334.259 101.552 334.176 101.66 334.117 101.781C334.058 101.902 334.023 102.034 334.016 102.169L332.171 123.847L319.348 107.02C319.249 106.891 319.121 106.787 318.974 106.719C318.826 106.65 318.665 106.618 318.502 106.626C318.34 106.633 318.182 106.68 318.042 106.762C317.902 106.844 317.784 106.959 317.698 107.097L305.562 126.49L281.637 101.712C281.451 101.523 281.197 101.414 280.932 101.41C280.666 101.406 280.41 101.507 280.219 101.692C280.027 101.876 279.917 102.129 279.911 102.394C279.905 102.66 280.004 102.917 280.187 103.109L305.003 128.814C305.097 128.913 305.209 128.992 305.334 129.046C305.459 129.101 305.593 129.129 305.729 129.13Z" fill="white"/>
<path d="M1230.08 368.805C1222.36 371.075 1213.76 373.338 1205.31 374.669C1197.29 375.666 1188.44 377.459 1179.9 377.338C1171.36 377.216 1163.14 375.151 1156.38 368.435C1149.46 360.238 1151.18 349.058 1159.64 341.347C1193.48 326.221 1228.43 310.701 1266.12 310.298C1274.08 310.212 1282.09 311.911 1289.19 315.594C1302.06 322.287 1310.77 335.164 1311 349.776C1311.17 377.467 1281.08 381.094 1254.39 376.107C1245.5 374.444 1236.98 371.816 1230.13 368.795C1230.12 368.79 1230.1 368.793 1230.08 368.805Z" fill="#4761FF"/>
<path d="M797.434 261.188C792.414 250.316 761.236 182.802 791.224 149.242C818.541 118.668 882.536 132.027 919.504 149.386C976.977 176.358 976.357 216.345 1015.53 220.141C1064.13 224.855 1086.38 165.349 1137.98 173.48C1158.72 176.748 1185.31 191.109 1188.6 210.195C1198.79 269.208 991.794 405.043 870.207 340.67C823.406 315.869 800.206 267.189 797.434 261.188Z" fill="#5970FF"/>
</g>
<defs>
<filter id="filter0_d_2_17013" x="0" y="0" width="1315" height="583.522" filterUnits="userSpaceOnUse" color-interpolation-filters="sRGB">
<feFlood flood-opacity="0" result="BackgroundImageFix"/>
<feColorMatrix in="SourceAlpha" type="matrix" values="0 0 0 0 0 0 0 0 0 0 0 0 0 0 0 0 0 0 127 0" result="hardAlpha"/>
<feOffset dy="4"/>
<feGaussianBlur stdDeviation="2"/>
<feComposite in2="hardAlpha" operator="out"/>
<feColorMatrix type="matrix" values="0 0 0 0 0 0 0 0 0 0 0 0 0 0 0 0 0 0 0.25 0"/>
<feBlend mode="normal" in2="BackgroundImageFix" result="effect1_dropShadow_2_17013"/>
<feBlend mode="normal" in="SourceGraphic" in2="effect1_dropShadow_2_17013" result="shape"/>
</filter>
</defs>
</svg>
