<svg width="736" height="126" viewBox="0 0 736 126" fill="none" xmlns="http://www.w3.org/2000/svg">
<path d="M35.56 20.84H32.44V0.999998H9.72L7.6 16.04C7.16 19.08 6.88 20.08 5.56 20.68C4.88 20.96 3.8 21.08 2.32 21.08H1.8V33.2H10.12V29H27.24V33.2H35.56V20.84ZM23.8 20.84H15.32C15.6 19.96 15.84 18.88 16.04 17.56L17.2 9.16H23.8V20.84ZM69.53 0.999998H46.33L44.09 16.92C43.69 19.92 42.97 20.76 38.93 20.76V29H39.53C47.53 29 51.37 26.48 52.29 20.08L53.81 9.16H60.89V29H69.53V0.999998ZM102.365 0.999998H84.2047C77.1647 0.999998 73.4847 4.32 73.4847 10.6C73.4847 14.64 75.2847 17.52 78.6447 18.92L72.9647 29H82.7247L88.0047 19.88H93.7247V29H102.365V0.999998ZM93.7247 11.72H84.0047C82.6847 11.72 82.1247 11.28 82.1247 10.44C82.1247 9.6 82.7647 9.16 84.0047 9.16H93.7247V11.72ZM148.934 13.72C148.814 3.6 145.654 0.439998 135.534 0.32H131.854C121.734 0.439998 118.574 3.6 118.454 13.72V16.28C118.574 26.4 121.734 29.56 131.854 29.68H135.534C145.654 29.56 148.814 26.4 148.934 16.28V13.72ZM127.094 13.92C127.094 9.52 127.974 8.56 132.454 8.56H134.934C139.414 8.56 140.294 9.52 140.294 13.92V16.08C140.294 20.56 139.414 21.44 134.934 21.44H132.454C127.974 21.44 127.094 20.56 127.094 16.08V13.92ZM173.25 27.36C181.25 27.12 185.33 24.12 185.33 15C185.33 5.88 181.25 2.88 173.25 2.64V0.999998H164.61V2.64C156.61 2.88 152.53 5.88 152.53 15C152.53 24.12 156.61 27.12 164.61 27.36V29H173.25V27.36ZM164.61 19.08C162.25 18.76 161.17 17.76 161.17 15C161.17 12.24 162.25 11.24 164.61 10.92V19.08ZM176.69 15C176.69 17.76 175.61 18.76 173.25 19.08V10.92C175.61 11.24 176.69 12.24 176.69 15ZM219.402 13.72C219.282 3.6 216.122 0.439998 206.002 0.32H202.322C192.202 0.439998 189.042 3.6 188.922 13.72V16.28C189.042 26.4 192.202 29.56 202.322 29.68H206.002C216.122 29.56 219.282 26.4 219.402 16.28V13.72ZM197.562 13.92C197.562 9.52 198.442 8.56 202.922 8.56H205.402C209.882 8.56 210.762 9.52 210.762 13.92V16.08C210.762 20.56 209.882 21.44 205.402 21.44H202.922C198.442 21.44 197.562 20.56 197.562 16.08V13.92ZM253.157 10.6C253.157 4.32 249.477 0.999998 242.437 0.999998H223.797V29H232.437V20.2H242.437C249.477 20.2 253.157 16.88 253.157 10.6ZM244.517 10.6C244.517 11.52 243.877 12.04 242.597 12.04H232.437V9.16H242.597C243.877 9.16 244.517 9.76 244.517 10.6ZM287.309 0.999998H278.349L271.989 8.28L265.629 0.999998H256.589V29H265.229V13.4L271.909 21L278.669 13.28V29H287.309V0.999998ZM321.672 0.999998H298.472L296.232 16.92C295.832 19.92 295.112 20.76 291.072 20.76V29H291.672C299.672 29 303.512 26.48 304.432 20.08L305.952 9.16H313.032V29H321.672V0.999998ZM352.107 20.84H335.267V18.8H346.627V11.12H335.267V9.16H352.027V0.999998H326.627V29H352.107V20.84ZM385.213 0.999998H376.573V10.84H364.973V0.999998H356.333V29H364.973V19H376.573V29H385.213V0.999998ZM419.38 29V0.999998H410.58L398.82 14.56V0.999998H390.18V29H397.66L410.74 13.92V29H419.38ZM452.219 0.999998H434.059C427.019 0.999998 423.339 4.32 423.339 10.6C423.339 14.64 425.139 17.52 428.499 18.92L422.819 29H432.579L437.859 19.88H443.579V29H452.219V0.999998ZM443.579 11.72H433.859C432.539 11.72 431.979 11.28 431.979 10.44C431.979 9.6 432.619 9.16 433.859 9.16H443.579V11.72ZM497.749 0.999998H468.869V29H477.509V9.16H489.109V29H497.749V0.999998ZM532.636 13.72C532.516 3.6 529.356 0.439998 519.236 0.32H515.556C505.436 0.439998 502.276 3.6 502.156 13.72V16.28C502.276 26.4 505.436 29.56 515.556 29.68H519.236C529.356 29.56 532.516 26.4 532.636 16.28V13.72ZM510.796 13.92C510.796 9.52 511.676 8.56 516.156 8.56H518.636C523.116 8.56 523.996 9.52 523.996 13.92V16.08C523.996 20.56 523.116 21.44 518.636 21.44H516.156C511.676 21.44 510.796 20.56 510.796 16.08V13.92ZM569.004 20.84H565.884V0.999998H543.164L541.044 16.04C540.604 19.08 540.324 20.08 539.004 20.68C538.324 20.96 537.244 21.08 535.764 21.08H535.244V33.2H543.564V29H560.684V33.2H569.004V20.84ZM557.244 20.84H548.764C549.044 19.96 549.284 18.88 549.484 17.56L550.644 9.16H557.244V20.84ZM601.555 0.999998H572.675V29H581.315V9.16H592.915V29H601.555V0.999998ZM635.722 29V0.999998H626.922L615.162 14.56V0.999998H606.522V29H614.002L627.082 13.92V29H635.722ZM669.642 10.16C669.642 3.56 665.202 0.32 657.562 0.32H653.522C643.402 0.439998 640.242 3.6 640.122 13.72V16.28C640.242 26.4 643.402 29.56 653.522 29.68H657.562C665.202 29.68 669.642 26.44 669.642 19.84H660.682C660.362 21 659.482 21.44 656.122 21.44H654.122C649.642 21.44 648.762 20.56 648.762 16.08V13.92C648.762 9.52 649.642 8.56 654.122 8.56H656.122C659.482 8.56 660.362 9 660.682 10.16H669.642ZM694.946 14.92L703.306 0.999998H693.466L687.666 10.84H682.426V0.999998H673.786V29H682.426V19H687.466L693.226 29H703.146L694.946 14.92ZM735.583 29V0.999998H726.783L715.023 14.56V0.999998H706.383V29H713.863L726.943 13.92V29H735.583ZM31.96 49H23.32V58.84H11.72V49H3.08V77H11.72V67H23.32V77H31.96V49ZM57.0069 72.36L58.8069 77H67.9669L56.6469 49H45.9269L34.6069 77H43.6869L45.4869 72.36H57.0069ZM53.8869 64.2H48.6069L51.2469 57.36L53.8869 64.2ZM109.213 57.16V49H80.3328V57.16H90.4528V77H99.0928V57.16H109.213ZM128.547 72.36L130.347 77H139.507L128.187 49H117.467L106.147 77H115.227L117.027 72.36H128.547ZM125.427 64.2H120.147L122.787 57.36L125.427 64.2ZM171.518 58.6C171.518 52.32 167.838 49 160.798 49H142.158V77H150.798V68.2H160.798C167.838 68.2 171.518 64.88 171.518 58.6ZM162.878 58.6C162.878 59.52 162.238 60.04 160.958 60.04H150.798V57.16H160.958C162.238 57.16 162.878 57.76 162.878 58.6ZM204.15 77V49H195.35L183.59 62.56V49H174.95V77H182.43L195.51 61.92V77H204.15ZM229.03 75.36C237.03 75.12 241.11 72.12 241.11 63C241.11 53.88 237.03 50.88 229.03 50.64V49H220.39V50.64C212.39 50.88 208.31 53.88 208.31 63C208.31 72.12 212.39 75.12 220.39 75.36V77H229.03V75.36ZM220.39 67.08C218.03 66.76 216.95 65.76 216.95 63C216.95 60.24 218.03 59.24 220.39 58.92V67.08ZM232.47 63C232.47 65.76 231.39 66.76 229.03 67.08V58.92C231.39 59.24 232.47 60.24 232.47 63ZM252.767 73.04C252.767 69.32 251.327 67.96 248.007 67.96C244.687 67.96 243.247 69.4 243.247 72.64C243.247 75.88 244.687 77.32 248.007 77.32H248.167C248.167 78.48 247.167 78.84 245.247 78.84V82.4H245.487C251.327 82.2 252.647 80.92 252.767 74.84V73.04ZM297.343 49H288.703V58.84H277.103V49H268.463V77H277.103V67H288.703V77H297.343V49ZM327.79 68.84H310.95V66.8H322.31V59.12H310.95V57.16H327.71V49H302.31V77H327.79V68.84ZM361.623 61.72C361.503 51.6 358.343 48.44 348.223 48.32H344.543C334.423 48.44 331.263 51.6 331.143 61.72V64.28C331.263 74.4 334.423 77.56 344.543 77.68H348.223C358.343 77.56 361.503 74.4 361.623 64.28V61.72ZM339.783 61.92C339.783 57.52 340.663 56.56 345.143 56.56H347.623C352.103 56.56 352.983 57.52 352.983 61.92V64.08C352.983 68.56 352.103 69.44 347.623 69.44H345.143C340.663 69.44 339.783 68.56 339.783 64.08V61.92ZM395.539 68.24C395.539 62.4 391.939 59.48 384.739 59.48H374.659V57.16H394.419V49H366.019V77H384.739C391.939 77 395.539 74.08 395.539 68.24ZM387.019 67.68C387.019 68.44 386.379 68.84 385.139 68.84H374.659V66.52H385.139C386.379 66.52 387.019 66.92 387.019 67.68ZM412.623 69.56L417.863 77H428.783L418.223 62.8L428.583 49H417.863L412.743 56.12L407.543 49H396.623L406.943 62.84L396.423 77H407.143L412.623 69.56ZM459.883 61.72C459.763 51.6 456.603 48.44 446.483 48.32H442.803C432.683 48.44 429.523 51.6 429.403 61.72V64.28C429.523 74.4 432.683 77.56 442.803 77.68H446.483C456.603 77.56 459.763 74.4 459.883 64.28V61.72ZM438.043 61.92C438.043 57.52 438.923 56.56 443.403 56.56H445.883C450.363 56.56 451.243 57.52 451.243 61.92V64.08C451.243 68.56 450.363 69.44 445.883 69.44H443.403C438.923 69.44 438.043 68.56 438.043 64.08V61.92ZM496.251 68.84H493.131V49H470.411L468.291 64.04C467.851 67.08 467.571 68.08 466.251 68.68C465.571 68.96 464.491 69.08 463.011 69.08H462.491V81.2H470.811V77H487.931V81.2H496.251V68.84ZM484.491 68.84H476.011C476.291 67.96 476.531 66.88 476.731 65.56L477.891 57.16H484.491V68.84ZM529.122 77V49H520.322L508.562 62.56V49H499.922V77H507.402L520.482 61.92V77H529.122ZM564.802 49H555.842L549.482 56.28L543.122 49H534.082V77H542.722V61.4L549.402 69L556.162 61.28V77H564.802V49ZM599.684 61.72C599.564 51.6 596.404 48.44 586.284 48.32H582.604C572.484 48.44 569.324 51.6 569.204 61.72V64.28C569.324 74.4 572.484 77.56 582.604 77.68H586.284C596.404 77.56 599.564 74.4 599.684 64.28V61.72ZM577.844 61.92C577.844 57.52 578.724 56.56 583.204 56.56H585.684C590.164 56.56 591.044 57.52 591.044 61.92V64.08C591.044 68.56 590.164 69.44 585.684 69.44H583.204C578.724 69.44 577.844 68.56 577.844 64.08V61.92ZM23.16 120.36L24.96 125H34.12L22.8 97H12.08L0.76 125H9.84L11.64 120.36H23.16ZM20.04 112.2H14.76L17.4 105.36L20.04 112.2ZM66.2906 116.6C66.2906 114.04 65.4106 112.08 63.6906 110.76C65.1706 109.52 65.8906 107.68 65.8906 105.28C65.8906 99.84 62.1706 97 55.0906 97H36.7706V125H55.4906C62.5306 125 66.2906 122.04 66.2906 116.6ZM45.4106 105.16H55.4906C56.7306 105.16 57.3706 105.56 57.3706 106.32C57.3706 107.08 56.7306 107.48 55.4906 107.48H45.4106V105.16ZM57.7706 115.68C57.7706 116.44 57.1306 116.84 55.8906 116.84H45.4106V114.52H55.8906C57.1306 114.52 57.7706 114.92 57.7706 115.68ZM97.6316 105.16V97H68.7516V105.16H78.8716V125H87.5116V105.16H97.6316ZM130.869 109.72C130.749 99.6 127.589 96.44 117.469 96.32H113.789C103.669 96.44 100.509 99.6 100.389 109.72V112.28C100.509 122.4 103.669 125.56 113.789 125.68H117.469C127.589 125.56 130.749 122.4 130.869 112.28V109.72ZM109.029 109.92C109.029 105.52 109.909 104.56 114.389 104.56H116.869C121.349 104.56 122.229 105.52 122.229 109.92V112.08C122.229 116.56 121.349 117.44 116.869 117.44H114.389C109.909 117.44 109.029 116.56 109.029 112.08V109.92ZM164.624 106.6C164.624 100.32 160.944 97 153.904 97H135.264V125H143.904V116.2H153.904C160.944 116.2 164.624 112.88 164.624 106.6ZM155.984 106.6C155.984 107.52 155.344 108.04 154.064 108.04H143.904V105.16H154.064C155.344 105.16 155.984 105.76 155.984 106.6ZM197.257 125V97H188.457L176.697 110.56V97H168.057V125H175.537L188.617 109.92V125H197.257ZM230.936 116.28C230.936 113.76 230.176 111.84 228.856 110.76C229.976 109.64 230.536 107.92 230.536 105.64C230.536 99.44 226.296 96.32 217.816 96.32H214.536C205.856 96.32 201.336 99.32 201.336 106.16H210.376C210.696 105 211.576 104.56 214.936 104.56H219.176C220.496 104.56 221.176 105 221.176 105.92C221.176 106.84 220.496 107.28 219.176 107.28H212.056V114.72H219.576C220.896 114.72 221.576 115.16 221.576 116.08C221.576 117 220.896 117.44 219.576 117.44H214.936C211.576 117.44 210.696 117 210.376 115.84H201.336C201.336 122.68 205.856 125.68 214.536 125.68H218.096C226.376 125.68 230.936 122.4 230.936 116.28ZM264.733 109.72C264.613 99.6 261.453 96.44 251.333 96.32H247.653C237.533 96.44 234.373 99.6 234.253 109.72V112.28C234.373 122.4 237.533 125.56 247.653 125.68H251.333C261.453 125.56 264.613 122.4 264.733 112.28V109.72ZM242.893 109.92C242.893 105.52 243.773 104.56 248.253 104.56H250.733C255.213 104.56 256.093 105.52 256.093 109.92V112.08C256.093 116.56 255.213 117.44 250.733 117.44H248.253C243.773 117.44 242.893 116.56 242.893 112.08V109.92ZM298.648 116.6C298.648 114.04 297.768 112.08 296.048 110.76C297.528 109.52 298.248 107.68 298.248 105.28C298.248 99.84 294.528 97 287.448 97H269.128V125H287.848C294.888 125 298.648 122.04 298.648 116.6ZM277.768 105.16H287.848C289.088 105.16 289.728 105.56 289.728 106.32C289.728 107.08 289.088 107.48 287.848 107.48H277.768V105.16ZM290.128 115.68C290.128 116.44 289.488 116.84 288.248 116.84H277.768V114.52H288.248C289.488 114.52 290.128 114.92 290.128 115.68ZM322.157 120.36L323.957 125H333.117L321.797 97H311.077L299.757 125H308.837L310.637 120.36H322.157ZM319.037 112.2H313.757L316.397 105.36L319.037 112.2ZM358.875 105.16V97H329.995V105.16H340.115V125H348.755V105.16H358.875ZM390.784 115.64C390.784 109.52 387.104 106.28 380.064 106.28H371.184V97H362.544V125H380.064C387.104 125 390.784 121.76 390.784 115.64ZM382.144 115.64C382.144 116.48 381.584 116.84 380.264 116.84H371.184V114.44H380.264C381.584 114.44 382.144 114.8 382.144 115.64ZM423.593 106.16C423.593 99.56 419.153 96.32 411.513 96.32H407.473C397.353 96.44 394.193 99.6 394.073 109.72V112.28C394.193 122.4 397.353 125.56 407.473 125.68H411.513C419.153 125.68 423.593 122.44 423.593 115.84H414.633C414.313 117 413.433 117.44 410.073 117.44H408.073C403.593 117.44 402.713 116.56 402.713 112.08V109.92C402.713 105.52 403.593 104.56 408.073 104.56H410.073C413.433 104.56 414.313 105 414.633 106.16H423.593ZM455.618 97H437.458C430.418 97 426.738 100.32 426.738 106.6C426.738 110.64 428.538 113.52 431.898 114.92L426.218 125H435.978L441.258 115.88H446.978V125H455.618V97ZM446.978 107.72H437.258C435.938 107.72 435.378 107.28 435.378 106.44C435.378 105.6 436.018 105.16 437.258 105.16H446.978V107.72ZM469.129 120.64C469.129 117.4 467.689 115.96 464.369 115.96C461.049 115.96 459.609 117.4 459.609 120.64C459.609 123.88 461.049 125.32 464.369 125.32C467.689 125.32 469.129 123.88 469.129 120.64Z" fill="black"/>
</svg>
