<svg width="406" height="32" viewBox="0 0 406 32" fill="none" xmlns="http://www.w3.org/2000/svg">
<path d="M32.83 0.499998H23.11V11.57H10.06V0.499998H0.34V32H10.06V20.75H23.11V32H32.83V0.499998ZM60.5577 26.78L62.5827 32H72.8877L60.1527 0.499998H48.0927L35.3577 32H45.5727L47.5977 26.78H60.5577ZM57.0477 17.6H51.1077L54.0777 9.905L57.0477 17.6ZM122.04 0.499998H112.32V22.82H103.59V0.499998H93.8697V22.82H85.1397V0.499998H75.4197V32H122.04V0.499998ZM160.004 32V0.499998H150.104L136.874 15.755V0.499998H127.154V32H135.569L150.284 15.035V32H160.004ZM208.894 9.68V0.499998H176.404V9.68H187.789V32H197.509V9.68H208.894ZM230.195 26.78L232.22 32H242.525L229.79 0.499998H217.73L204.995 32H215.21L217.235 26.78H230.195ZM226.685 17.6H220.745L223.715 9.905L226.685 17.6ZM278.087 11.3C278.087 4.235 273.947 0.499998 266.027 0.499998H245.057V32H254.777V22.1H266.027C273.947 22.1 278.087 18.365 278.087 11.3ZM268.367 11.3C268.367 12.335 267.647 12.92 266.207 12.92H254.777V9.68H266.207C267.647 9.68 268.367 10.355 268.367 11.3ZM314.349 32V0.499998H304.449L291.219 15.755V0.499998H281.499V32H289.914L304.629 15.035V32H314.349ZM341.888 30.155C350.888 29.885 355.478 26.51 355.478 16.25C355.478 5.99 350.888 2.615 341.888 2.345V0.499998H332.168V2.345C323.168 2.615 318.578 5.99 318.578 16.25C318.578 26.51 323.168 29.885 332.168 30.155V32H341.888V30.155ZM332.168 20.84C329.513 20.48 328.298 19.355 328.298 16.25C328.298 13.145 329.513 12.02 332.168 11.66V20.84ZM345.758 16.25C345.758 19.355 344.543 20.48 341.888 20.84V11.66C344.543 12.02 345.758 13.145 345.758 16.25ZM392.908 21.47C392.908 14.405 388.813 10.94 380.488 10.94H369.418V0.499998H359.698V32H380.488C388.813 32 392.908 28.535 392.908 21.47ZM405.823 0.499998H396.103V32H405.823V0.499998ZM383.323 21.47C383.323 22.325 382.603 22.73 381.208 22.73H369.418V20.21H381.208C382.603 20.21 383.323 20.615 383.323 21.47Z" fill="black"/>
</svg>
