<svg width="556" height="34" viewBox="0 0 556 34" fill="none" xmlns="http://www.w3.org/2000/svg">
<path d="M32.83 1.5H0.34V33H10.06V10.68H23.11V33H32.83V1.5ZM71.6277 15.81C71.4927 4.425 67.9377 0.869998 56.5527 0.735H52.4127C41.0277 0.869998 37.4727 4.425 37.3377 15.81V18.69C37.4727 30.075 41.0277 33.63 52.4127 33.765H56.5527C67.9377 33.63 71.4927 30.075 71.6277 18.69V15.81ZM47.0577 16.035C47.0577 11.085 48.0477 10.005 53.0877 10.005H55.8777C60.9177 10.005 61.9077 11.085 61.9077 16.035V18.465C61.9077 23.505 60.9177 24.495 55.8777 24.495H53.0877C48.0477 24.495 47.0577 23.505 47.0577 18.465V16.035ZM106.731 1.5H97.0113V12.48H90.6213C85.2213 12.345 84.7263 11.85 84.5913 6.45V1.5H74.8713V6.675C75.0963 18.87 77.7513 21.525 89.9463 21.75H97.0113V33H106.731V1.5ZM140.526 23.82H121.581V21.525H134.361V12.885H121.581V10.68H140.436V1.5H111.861V33H140.526V23.82ZM179.39 1.5H169.31L162.155 9.69L155 1.5H144.83V33H154.55V15.45L162.065 24L169.67 15.315V33H179.39V1.5ZM219.309 1.5H208.419L201.039 14.595L193.659 1.5H182.679L195.369 23.46C194.874 23.685 194.244 23.82 193.479 23.82H187.989V33H194.469C199.734 33 201.714 31.965 203.874 28.23L219.309 1.5ZM265.427 33V1.5H255.527L242.297 16.755V1.5H232.577V33H240.992L255.707 16.035V33H265.427ZM305.116 1.5H295.036L287.881 9.69L280.726 1.5H270.556V33H280.276V15.45L287.791 24L295.396 15.315V33H305.116V1.5ZM338.914 23.82H319.969V21.525H332.749V12.885H319.969V10.68H338.824V1.5H310.249V33H338.914V23.82ZM375.709 1.5H365.989V12.57H352.939V1.5H343.219V33H352.939V21.75H365.989V33H375.709V1.5ZM413.337 1.5H403.617V12.57H390.567V1.5H380.847V33H390.567V21.75H403.617V33H413.337V1.5ZM452.134 15.81C451.999 4.425 448.444 0.869998 437.059 0.735H432.919C421.534 0.869998 417.979 4.425 417.844 15.81V18.69C417.979 30.075 421.534 33.63 432.919 33.765H437.059C448.444 33.63 451.999 30.075 452.134 18.69V15.81ZM427.564 16.035C427.564 11.085 428.554 10.005 433.594 10.005H436.384C441.424 10.005 442.414 11.085 442.414 16.035V18.465C442.414 23.505 441.424 24.495 436.384 24.495H433.594C428.554 24.495 427.564 23.505 427.564 18.465V16.035ZM503.9 1.5H493.82L486.665 9.69L479.51 1.5H469.34V33H479.06V15.45L486.575 24L494.18 15.315V33H503.9V1.5ZM542.243 22.47C542.243 15.405 538.148 11.94 529.823 11.94H518.753V1.5H509.033V33H529.823C538.148 33 542.243 29.535 542.243 22.47ZM555.158 1.5H545.438V33H555.158V1.5ZM532.658 22.47C532.658 23.325 531.938 23.73 530.543 23.73H518.753V21.21H530.543C531.938 21.21 532.658 21.615 532.658 22.47Z" fill="black"/>
</svg>
