<svg width="721" height="262" viewBox="0 0 721 262" fill="none" xmlns="http://www.w3.org/2000/svg">
<path d="M44.56 15.74C44.56 5.84 37.9 0.98 26.44 0.98H20.38C5.2 1.16 0.46 5.9 0.28 21.08V24.92C0.46 40.1 5.2 44.84 20.38 45.02H26.44C37.9 45.02 44.56 40.16 44.56 30.26H31.12C30.64 32 29.32 32.66 24.28 32.66H21.28C14.56 32.66 13.24 31.34 13.24 24.62V21.38C13.24 14.78 14.56 13.34 21.28 13.34H24.28C29.32 13.34 30.64 14 31.12 15.74H44.56ZM88.397 31.76H63.137V28.7H80.177V17.18H63.137V14.24H88.277V2H50.177V44H88.397V31.76ZM138.176 16.4C138.176 6.98 132.656 2 122.096 2H94.1364V44H107.096V30.8H122.096C132.656 30.8 138.176 25.82 138.176 16.4ZM125.216 16.4C125.216 17.78 124.256 18.56 122.336 18.56H107.096V14.24H122.336C124.256 14.24 125.216 15.14 125.216 16.4ZM187.005 31.4C187.005 27.56 185.685 24.62 183.105 22.64C185.325 20.78 186.405 18.02 186.405 14.42C186.405 6.26 180.825 2 170.205 2H142.725V44H170.805C181.365 44 187.005 39.56 187.005 31.4ZM155.685 14.24H170.805C172.665 14.24 173.625 14.84 173.625 15.98C173.625 17.12 172.665 17.72 170.805 17.72H155.685V14.24ZM174.225 30.02C174.225 31.16 173.265 31.76 171.405 31.76H155.685V28.28H171.405C173.265 28.28 174.225 28.88 174.225 30.02ZM235.816 44V2H222.616L204.976 22.34V2H192.016V44H203.236L222.856 21.38V44H235.816ZM286.095 15.74C286.095 5.84 279.435 0.98 267.975 0.98H261.915C246.735 1.16 241.995 5.9 241.815 21.08V24.92C241.995 40.1 246.735 44.84 261.915 45.02H267.975C279.435 45.02 286.095 40.16 286.095 30.26H272.655C272.175 32 270.855 32.66 265.815 32.66H262.815C256.095 32.66 254.775 31.34 254.775 24.62V21.38C254.775 14.78 256.095 13.34 262.815 13.34H265.815C270.855 13.34 272.175 14 272.655 15.74H286.095ZM351.98 2H308.66V44H321.62V14.24H339.02V44H351.98V2ZM403.71 21.08C403.53 5.9 398.79 1.16 383.61 0.98H378.09C362.91 1.16 358.17 5.9 357.99 21.08V24.92C358.17 40.1 362.91 44.84 378.09 45.02H383.61C398.79 44.84 403.53 40.1 403.71 24.92V21.08ZM370.95 21.38C370.95 14.78 372.27 13.34 378.99 13.34H382.71C389.43 13.34 390.75 14.78 390.75 21.38V24.62C390.75 31.34 389.43 32.66 382.71 32.66H378.99C372.27 32.66 370.95 31.34 370.95 24.62V21.38ZM469.971 2H426.651V44H439.611V14.24H457.011V44H469.971V2ZM521.702 21.08C521.522 5.9 516.782 1.16 501.602 0.98H496.082C480.902 1.16 476.162 5.9 475.982 21.08V24.92C476.162 40.1 480.902 44.84 496.082 45.02H501.602C516.782 44.84 521.522 40.1 521.702 24.92V21.08ZM488.942 21.38C488.942 14.78 490.262 13.34 496.982 13.34H500.702C507.422 13.34 508.742 14.78 508.742 21.38V24.62C508.742 31.34 507.422 32.66 500.702 32.66H496.982C490.262 32.66 488.942 31.34 488.942 24.62V21.38ZM571.495 44V2H558.295L540.655 22.34V2H527.695V44H538.915L558.535 21.38V44H571.495ZM621.774 15.74C621.774 5.84 615.114 0.98 603.654 0.98H597.594C582.414 1.16 577.674 5.9 577.494 21.08V24.92C577.674 40.1 582.414 44.84 597.594 45.02H603.654C615.114 45.02 621.774 40.16 621.774 30.26H608.334C607.854 32 606.534 32.66 601.494 32.66H598.494C591.774 32.66 590.454 31.34 590.454 24.62V21.38C590.454 14.78 591.774 13.34 598.494 13.34H601.494C606.534 13.34 607.854 14 608.334 15.74H621.774ZM659.131 22.88L671.671 2H656.911L648.211 16.76H640.351V2H627.391V44H640.351V29H647.911L656.551 44H671.431L659.131 22.88ZM720.016 2H705.496L695.656 19.46L685.816 2H671.176L688.096 31.28C687.436 31.58 686.596 31.76 685.576 31.76H678.256V44H686.896C693.916 44 696.556 42.62 699.436 37.64L720.016 2ZM44.44 74H1.12V116H14.08V86.24H31.48V116H44.44V74ZM97.6703 74H83.1503L73.3103 91.46L63.4703 74H48.8303L65.7503 103.28C65.0903 103.58 64.2503 103.76 63.2303 103.76H55.9103V116H64.5503C71.5703 116 74.2103 114.62 77.0903 109.64L97.6703 74ZM145.213 102.86C145.213 94.1 139.813 89.72 129.013 89.72H113.893V86.24H143.533V74H100.933V116H129.013C139.813 116 145.213 111.62 145.213 102.86ZM132.433 102.02C132.433 103.16 131.473 103.76 129.613 103.76H113.893V100.28H129.613C131.473 100.28 132.433 100.88 132.433 102.02ZM195.028 74H160.228L156.868 97.88C156.268 102.38 155.188 103.64 149.128 103.64V116H150.028C162.028 116 167.788 112.22 169.168 102.62L171.448 86.24H182.068V116H195.028V74ZM245.66 116V74H232.46L214.82 94.34V74H201.86V116H213.08L232.7 93.38V116H245.66ZM284.239 94.88L296.779 74H282.019L273.319 88.76H265.459V74H252.499V116H265.459V101H273.019L281.659 116H296.539L284.239 94.88ZM330.035 109.04L332.735 116H346.475L329.495 74H313.415L296.435 116H310.055L312.755 109.04H330.035ZM325.355 96.8H317.435L321.395 86.54L325.355 96.8ZM396.891 103.76H392.211V74H379.251V103.76H362.811V74H349.851V116H384.411V122.3H396.891V103.76ZM445.638 116V74H432.438L414.798 94.34V74H401.838V116H413.058L432.678 93.38V116H445.638ZM474.437 71.36C481.457 71.36 485.657 67.64 485.657 61.34V60.74H479.417C479.417 63.56 477.377 65.36 474.437 65.36C471.497 65.36 469.457 63.56 469.457 60.74H463.217V61.34C463.217 67.64 467.417 71.36 474.437 71.36ZM496.277 116V74H483.077L465.437 94.34V74H452.477V116H463.697L483.317 93.38V116H496.277ZM46 165.08C45.82 149.9 41.08 145.16 25.9 144.98H20.38C5.2 145.16 0.46 149.9 0.28 165.08V168.92C0.46 184.1 5.2 188.84 20.38 189.02H25.9C41.08 188.84 45.82 184.1 46 168.92V165.08ZM13.24 165.38C13.24 158.78 14.56 157.34 21.28 157.34H25C31.72 157.34 33.04 158.78 33.04 165.38V168.62C33.04 175.34 31.72 176.66 25 176.66H21.28C14.56 176.66 13.24 175.34 13.24 168.62V165.38ZM100.681 166.88L113.221 146H98.4611L89.7611 160.76H81.9011V146H68.9411V188H81.9011V173H89.4611L98.1011 188H112.981L100.681 166.88ZM159.363 165.08C159.183 149.9 154.443 145.16 139.263 144.98H133.743C118.563 145.16 113.823 149.9 113.643 165.08V168.92C113.823 184.1 118.563 188.84 133.743 189.02H139.263C154.443 188.84 159.183 184.1 159.363 168.92V165.08ZM126.603 165.38C126.603 158.78 127.923 157.34 134.643 157.34H138.363C145.083 157.34 146.403 158.78 146.403 165.38V168.62C146.403 175.34 145.083 176.66 138.363 176.66H134.643C127.923 176.66 126.603 175.34 126.603 168.62V165.38ZM211.436 146H197.996L188.456 156.92L178.916 146H165.356V188H178.316V164.6L188.336 176L198.476 164.42V188H211.436V146ZM261.6 146H218.28V188H231.24V158.24H248.64V188H261.6V146ZM298.57 181.04L301.27 188H315.01L298.03 146H281.95L264.97 188H278.59L281.29 181.04H298.57ZM293.89 168.8H285.97L289.93 158.54L293.89 168.8ZM361.706 146H348.746V160.76H331.346V146H318.386V188H331.346V173H348.746V188H361.706V146ZM412.357 188V146H399.157L381.517 166.34V146H368.557V188H379.777L399.397 165.38V188H412.357ZM462.996 188V146H449.796L432.156 166.34V146H419.196V188H430.416L450.036 165.38V188H462.996ZM44.44 218H1.12V260H14.08V230.24H31.48V260H44.44V218ZM96.1703 237.08C95.9903 221.9 91.2503 217.16 76.0703 216.98H70.5503C55.3703 217.16 50.6303 221.9 50.4503 237.08V240.92C50.6303 256.1 55.3703 260.84 70.5503 261.02H76.0703C91.2503 260.84 95.9903 256.1 96.1703 240.92V237.08ZM63.4103 237.38C63.4103 230.78 64.7303 229.34 71.4503 229.34H75.1703C81.8903 229.34 83.2103 230.78 83.2103 237.38V240.62C83.2103 247.34 81.8903 248.66 75.1703 248.66H71.4503C64.7303 248.66 63.4103 247.34 63.4103 240.62V237.38ZM157.331 247.76H132.071V244.7H149.111V233.18H132.071V230.24H157.211V218H119.111V260H157.331V247.76ZM199.731 230.24V218H163.071V260H176.031V230.24H199.731ZM248.98 237.08C248.8 221.9 244.06 217.16 228.88 216.98H223.36C208.18 217.16 203.44 221.9 203.26 237.08V240.92C203.44 256.1 208.18 260.84 223.36 261.02H228.88C244.06 260.84 248.8 256.1 248.98 240.92V237.08ZM216.22 237.38C216.22 230.78 217.54 229.34 224.26 229.34H227.98C234.7 229.34 236.02 230.78 236.02 237.38V240.62C236.02 247.34 234.7 248.66 227.98 248.66H224.26C217.54 248.66 216.22 247.34 216.22 240.62V237.38ZM315.722 260V218H302.522L284.882 238.34V218H271.922V260H283.142L302.762 237.38V260H315.722ZM365.881 218H352.921V232.76H335.521V218H322.561V260H335.521V245H352.921V260H365.881V218ZM416.051 218H403.091V232.76H385.691V218H372.731V260H385.691V245H403.091V260H416.051V218Z" fill="black"/>
</svg>
